# xmcd
#
# Track frame offsets:
#	150
#	14517
#	33646
#	48350
#	67292
#	81471
#	96550
#	112379
#	127683
#	141000
#	154542
#	170409
#	186688
#	203642
#	217859
#	247601
#	261968
#	279935
#	308852
#
# Disc length: 4313 seconds
#
# Revision: 7
# Processed by: cddbd v1.5.2PL0 Copyright (c) Steve Scherf et al.
# Submitted via: EasyCDDAExtractor 7.5.0.1
#
DISCID=1810d713
DTITLE=Various Artist - The Very Best Of Country
DYEAR=1900
DGENRE=Country
TTITLE0=John Denver - Take Me Home Country Road
TTITLE1=Kenny Roges - Island In The Stream
TTITLE2=Glex Campbell - Rhinestone Cowboy
TTITLE3=America - A Horse With No Name
TTITLE4=Neil Young - Heart Of Gold
TTITLE5=Albert Hammond - It Never Rains In Southern California
TTITLE6=Dirt Band - American Dream
TTITLE7=Dawn - Tie A Yellow Ribbon Around The Old Oak Tree
TTITLE8=C.C.R. - Cotton Fields
TTITLE9=Scott McKenzie - San Francisco
TTITLE10=Jennifer Warnes - I Know A Hearthache When I See One
TTITLE11=Lobo - Stony
TTITLE12=Carpenders - Jambalaya
TTITLE13=Loretta Lynn - Coal Miner's Daughter
TTITLE14=Dan Fooelberg - Sutter Mill
TTITLE15=Ronnie - No Getting Over Me
TTITLE16=Suzi Quatro and Chris Norman - Stumbin' In
TTITLE17=Eagles - Lyin' Eye
TTITLE18=Dan Fooelberg - Longer
EXTD=
EXTT0=
EXTT1=
EXTT2=
EXTT3=
EXTT4=
EXTT5=
EXTT6=
EXTT7=
EXTT8=
EXTT9=
EXTT10=
EXTT11=
EXTT12=
EXTT13=
EXTT14=
EXTT15=
EXTT16=
EXTT17=
EXTT18=
PLAYORDER=
